<svg xmlns="http://www.w3.org/2000/svg" width="250" height="50" viewBox="0 0 250 50">
  <title>Goldner &amp; Dias Paes Advocacia header logo</title>
  <g fill="#cfaa76" fill-rule="evenodd"><path d="M 225.15 9.34 L 224.89 9.59 L 224.89 9.85 L 226.17 9.85 L 226.94 10.62 L 226.94 21.66 L 226.69 21.92 L 226.69 22.18 L 226.43 22.43 L 226.17 22.43 L 225.92 22.69 L 224.89 22.69 L 224.89 22.95 L 225.15 23.20 L 225.40 22.95 L 226.43 22.95 L 226.69 23.20 L 234.90 23.20 L 235.16 22.95 L 235.42 22.95 L 235.42 22.69 L 235.67 22.43 L 235.67 21.66 L 235.93 21.41 L 235.93 20.63 L 236.19 20.38 L 236.19 19.86 L 235.67 19.86 L 235.67 20.38 L 235.42 20.63 L 235.42 20.89 L 234.39 21.92 L 234.13 21.92 L 233.88 22.18 L 229.00 22.18 L 228.74 21.92 L 228.74 16.78 L 229.00 16.53 L 232.85 16.53 L 233.62 17.30 L 233.62 17.81 L 233.88 18.07 L 234.13 18.07 L 234.13 14.22 L 233.62 14.22 L 233.62 14.99 L 232.85 15.76 L 229.00 15.76 L 228.74 15.50 L 228.74 10.36 L 229.00 10.11 L 233.62 10.11 L 233.88 10.36 L 234.13 10.36 L 234.65 10.88 L 234.65 11.13 L 234.90 11.39 L 234.90 11.90 L 235.16 12.16 L 235.16 12.42 L 235.42 12.42 L 235.42 9.85 L 235.16 9.59 L 235.16 9.34 Z M 92.39 9.34 L 92.13 9.59 L 92.13 9.85 L 93.67 9.85 L 94.19 10.36 L 94.19 11.90 L 94.44 12.16 L 94.44 15.24 L 94.19 15.50 L 94.19 18.84 L 94.44 19.09 L 94.44 21.41 L 94.19 21.66 L 94.19 21.92 L 93.67 22.43 L 93.42 22.43 L 93.16 22.69 L 92.39 22.69 L 92.39 22.95 L 92.65 23.20 L 95.73 23.20 L 95.98 22.95 L 98.29 22.95 L 98.29 22.69 L 97.27 22.69 L 97.01 22.43 L 96.75 22.43 L 96.24 21.92 L 96.24 17.30 L 96.50 17.04 L 98.04 17.04 L 99.32 18.32 L 99.32 18.58 L 100.09 19.35 L 100.09 19.61 L 101.12 20.63 L 101.12 20.89 L 102.92 22.69 L 103.17 22.69 L 103.43 22.95 L 104.20 22.95 L 104.46 23.20 L 106.77 23.20 L 107.03 22.95 L 107.03 22.69 L 106.00 22.69 L 105.74 22.43 L 105.48 22.43 L 104.97 21.92 L 104.71 21.92 L 103.17 20.38 L 103.17 20.12 L 102.66 19.61 L 102.66 19.35 L 101.63 18.32 L 101.63 18.07 L 100.86 17.30 L 100.61 17.30 L 100.35 17.04 L 100.35 16.78 L 100.61 16.53 L 101.12 16.53 L 101.38 16.27 L 101.63 16.27 L 101.89 16.01 L 102.15 16.01 L 103.17 14.99 L 103.17 14.73 L 103.43 14.47 L 103.43 14.22 L 103.69 13.96 L 103.69 12.42 L 103.43 12.16 L 103.43 11.65 L 103.17 11.39 L 103.17 11.13 L 102.40 10.36 L 102.15 10.36 L 101.63 9.85 L 101.38 9.85 L 101.12 9.59 L 100.09 9.59 L 99.84 9.34 L 92.90 9.34 L 92.65 9.59 Z M 96.24 10.36 L 96.50 10.11 L 98.81 10.11 L 99.06 10.36 L 99.84 10.36 L 101.12 11.65 L 101.12 11.90 L 101.38 12.16 L 101.38 13.19 L 101.63 13.44 L 101.38 13.70 L 101.38 14.22 L 101.12 14.47 L 101.12 14.99 L 100.35 15.76 L 100.09 15.76 L 99.84 16.01 L 99.58 16.01 L 99.32 16.27 L 96.50 16.27 L 96.24 16.01 Z M 80.32 9.34 L 80.06 9.59 L 80.06 9.85 L 81.60 9.85 L 81.86 10.11 L 81.86 10.36 L 82.12 10.62 L 82.12 21.66 L 81.86 21.92 L 81.86 22.18 L 81.60 22.43 L 81.35 22.43 L 81.09 22.69 L 80.06 22.69 L 80.06 22.95 L 80.32 22.95 L 80.58 23.20 L 88.54 23.20 L 88.79 22.95 L 89.31 22.95 L 89.56 23.20 L 89.82 22.95 L 90.08 23.20 L 90.33 22.95 L 90.85 22.95 L 90.85 22.18 L 91.10 21.92 L 91.10 21.15 L 91.36 20.89 L 91.36 20.38 L 91.62 20.12 L 91.62 19.86 L 91.36 19.61 L 91.10 19.61 L 91.10 19.86 L 90.85 20.12 L 90.85 20.63 L 90.33 21.15 L 90.33 21.41 L 89.82 21.92 L 89.31 21.92 L 89.05 22.18 L 84.43 22.18 L 83.91 21.66 L 83.91 16.78 L 84.17 16.53 L 88.28 16.53 L 88.79 17.04 L 88.79 17.55 L 89.05 17.81 L 89.05 18.07 L 89.31 18.07 L 89.31 14.22 L 88.79 14.22 L 88.79 15.24 L 88.54 15.50 L 88.28 15.50 L 88.02 15.76 L 84.17 15.76 L 83.91 15.50 L 83.91 10.62 L 84.43 10.11 L 89.05 10.11 L 89.82 10.88 L 89.82 11.13 L 90.08 11.39 L 90.08 12.16 L 90.33 12.42 L 90.59 12.16 L 90.59 9.59 L 90.33 9.34 Z M 47.71 9.34 L 47.71 9.85 L 48.99 9.85 L 49.76 10.62 L 49.76 21.66 L 48.73 22.69 L 47.71 22.69 L 47.71 22.95 L 47.96 23.20 L 55.41 23.20 L 55.67 22.95 L 57.72 22.95 L 57.98 22.69 L 58.75 22.69 L 59.01 22.43 L 59.26 22.43 L 59.52 22.18 L 59.78 22.18 L 60.29 21.66 L 60.55 21.66 L 61.83 20.38 L 61.83 20.12 L 62.34 19.61 L 62.34 19.35 L 62.60 19.09 L 62.60 18.84 L 62.86 18.58 L 62.86 17.81 L 63.11 17.55 L 63.11 15.24 L 62.86 14.99 L 62.86 13.96 L 62.60 13.70 L 62.60 13.44 L 62.34 13.19 L 62.34 12.93 L 62.09 12.67 L 62.09 12.42 L 60.55 10.88 L 60.29 10.88 L 59.78 10.36 L 59.52 10.36 L 59.26 10.11 L 59.01 10.11 L 58.75 9.85 L 57.98 9.85 L 57.72 9.59 L 56.44 9.59 L 56.18 9.34 L 48.48 9.34 L 48.22 9.59 L 47.96 9.34 Z M 51.56 10.36 L 51.82 10.11 L 55.67 10.11 L 55.92 10.36 L 56.95 10.36 L 57.21 10.62 L 57.47 10.62 L 57.72 10.88 L 57.98 10.88 L 58.24 11.13 L 58.49 11.13 L 59.78 12.42 L 59.78 12.67 L 60.29 13.19 L 60.29 13.44 L 60.55 13.70 L 60.55 14.22 L 60.80 14.47 L 60.80 15.24 L 61.06 15.50 L 61.06 17.04 L 60.80 17.30 L 60.80 18.32 L 60.55 18.58 L 60.55 19.09 L 60.29 19.35 L 60.29 19.61 L 59.78 20.12 L 59.78 20.38 L 58.75 21.41 L 58.49 21.41 L 58.24 21.66 L 57.98 21.66 L 57.72 21.92 L 57.21 21.92 L 56.95 22.18 L 52.07 22.18 L 51.56 21.66 Z M 36.67 9.34 L 36.41 9.59 L 36.41 9.85 L 37.69 9.85 L 38.46 10.62 L 38.46 21.66 L 38.21 21.92 L 38.21 22.18 L 37.95 22.43 L 37.69 22.43 L 37.44 22.69 L 36.41 22.69 L 36.41 22.95 L 37.44 22.95 L 37.69 23.20 L 45.91 23.20 L 46.17 22.95 L 46.68 22.95 L 46.68 22.18 L 46.94 21.92 L 46.94 21.41 L 47.19 21.15 L 47.19 20.38 L 47.45 20.12 L 47.45 19.61 L 47.19 19.61 L 46.94 19.86 L 46.94 20.12 L 46.68 20.38 L 46.68 20.63 L 46.42 20.89 L 46.42 21.15 L 45.65 21.92 L 45.40 21.92 L 45.14 22.18 L 40.52 22.18 L 40.26 21.92 L 40.26 10.88 L 40.52 10.62 L 40.52 10.36 L 40.77 10.11 L 41.03 10.11 L 41.29 9.85 L 42.32 9.85 L 42.32 9.34 Z M 241.58 9.08 L 241.32 9.34 L 240.55 9.34 L 240.30 9.59 L 240.04 9.59 L 239.78 9.85 L 239.53 9.85 L 238.50 10.88 L 238.50 11.39 L 238.24 11.65 L 238.24 13.70 L 238.50 13.96 L 238.50 14.22 L 238.76 14.47 L 238.76 14.73 L 239.01 14.99 L 239.27 14.99 L 240.04 15.76 L 240.30 15.76 L 240.55 16.01 L 240.81 16.01 L 241.07 16.27 L 241.32 16.27 L 241.58 16.53 L 241.84 16.53 L 242.09 16.78 L 242.35 16.78 L 242.61 17.04 L 242.86 17.04 L 243.12 17.30 L 243.38 17.30 L 243.63 17.55 L 243.89 17.55 L 244.41 18.07 L 244.66 18.07 L 245.69 19.09 L 245.69 19.35 L 245.95 19.61 L 245.95 20.63 L 245.69 20.89 L 245.69 21.15 L 245.43 21.41 L 245.43 21.66 L 244.92 22.18 L 244.66 22.18 L 244.41 22.43 L 243.63 22.43 L 243.38 22.69 L 241.58 22.69 L 241.32 22.43 L 240.81 22.43 L 240.55 22.18 L 240.30 22.18 L 239.78 21.66 L 239.53 21.66 L 239.01 21.15 L 239.01 20.89 L 238.76 20.63 L 238.76 20.12 L 238.50 19.86 L 238.50 19.09 L 237.99 19.09 L 237.99 22.18 L 238.50 22.69 L 238.76 22.69 L 239.01 22.95 L 239.78 22.95 L 240.04 23.20 L 241.58 23.20 L 241.84 23.46 L 242.61 23.46 L 242.86 23.20 L 244.92 23.20 L 245.43 22.69 L 245.69 22.69 L 245.95 22.43 L 246.20 22.43 L 247.23 21.41 L 247.23 21.15 L 247.49 20.89 L 247.49 20.38 L 247.74 20.12 L 247.74 19.09 L 247.49 18.84 L 247.49 18.07 L 246.97 17.55 L 246.97 17.30 L 246.72 17.04 L 246.46 17.04 L 245.69 16.27 L 245.43 16.27 L 245.18 16.01 L 244.92 16.01 L 244.66 15.76 L 244.41 15.76 L 244.15 15.50 L 243.89 15.50 L 243.63 15.24 L 243.38 15.24 L 243.12 14.99 L 242.86 14.99 L 242.61 14.73 L 242.35 14.73 L 242.09 14.47 L 241.84 14.47 L 241.58 14.22 L 241.32 14.22 L 239.78 12.67 L 239.78 11.90 L 240.04 11.65 L 240.04 11.13 L 241.07 10.11 L 241.58 10.11 L 241.84 9.85 L 243.89 9.85 L 244.15 10.11 L 244.66 10.11 L 245.95 11.39 L 245.95 11.65 L 246.20 11.90 L 246.20 12.42 L 246.46 12.42 L 246.46 9.85 L 246.20 9.59 L 245.69 9.59 L 245.43 9.34 L 244.15 9.34 L 243.89 9.08 Z M 216.16 9.08 L 215.90 9.34 L 215.90 9.85 L 215.65 10.11 L 215.65 10.36 L 215.39 10.62 L 215.39 10.88 L 215.13 11.13 L 215.13 11.39 L 214.87 11.65 L 214.87 11.90 L 214.62 12.16 L 214.62 12.67 L 214.36 12.93 L 214.36 13.19 L 214.10 13.44 L 214.10 13.96 L 213.85 14.22 L 213.85 14.47 L 213.59 14.73 L 213.59 14.99 L 213.33 15.24 L 213.33 15.50 L 213.08 15.76 L 213.08 16.01 L 212.82 16.27 L 212.82 16.53 L 212.56 16.78 L 212.56 17.30 L 212.31 17.55 L 212.31 17.81 L 212.05 18.07 L 212.05 18.32 L 211.79 18.58 L 211.79 18.84 L 211.54 19.09 L 211.54 19.35 L 211.28 19.61 L 211.28 19.86 L 211.02 20.12 L 211.02 20.38 L 210.77 20.63 L 210.77 20.89 L 210.51 21.15 L 210.51 21.41 L 210.25 21.66 L 210.25 21.92 L 209.74 22.43 L 209.48 22.43 L 209.23 22.69 L 208.46 22.69 L 208.46 22.95 L 208.71 23.20 L 211.79 23.20 L 212.05 22.95 L 212.56 22.95 L 212.82 23.20 L 213.08 23.20 L 213.08 22.69 L 212.05 22.69 L 211.54 22.18 L 211.54 21.41 L 211.79 21.15 L 211.79 20.89 L 212.05 20.63 L 212.05 20.38 L 212.31 20.12 L 212.31 19.86 L 212.56 19.61 L 212.56 19.09 L 212.82 18.84 L 213.33 18.84 L 213.59 18.58 L 218.73 18.58 L 219.24 19.09 L 219.24 19.35 L 219.50 19.61 L 219.50 19.86 L 219.75 20.12 L 219.75 20.63 L 220.01 20.89 L 220.01 21.15 L 220.27 21.41 L 220.27 22.18 L 219.75 22.69 L 218.98 22.69 L 218.73 22.95 L 218.98 22.95 L 219.24 23.20 L 219.50 22.95 L 220.78 22.95 L 221.04 23.20 L 221.81 23.20 L 222.06 22.95 L 224.38 22.95 L 224.38 22.69 L 223.61 22.69 L 223.35 22.43 L 223.09 22.43 L 222.32 21.66 L 222.32 21.41 L 222.06 21.15 L 222.06 20.89 L 221.81 20.63 L 221.81 20.12 L 221.55 19.86 L 221.55 19.61 L 221.29 19.35 L 221.29 19.09 L 221.04 18.84 L 221.04 18.58 L 220.78 18.32 L 220.78 17.81 L 220.52 17.55 L 220.52 17.30 L 220.27 17.04 L 220.27 16.78 L 220.01 16.53 L 220.01 16.27 L 219.75 16.01 L 219.75 15.76 L 219.50 15.50 L 219.50 15.24 L 219.24 14.99 L 219.24 14.47 L 218.98 14.22 L 218.98 13.96 L 218.73 13.70 L 218.73 13.44 L 218.47 13.19 L 218.47 12.67 L 218.21 12.42 L 218.21 12.16 L 217.96 11.90 L 217.96 11.65 L 217.70 11.39 L 217.70 11.13 L 217.44 10.88 L 217.44 10.62 L 217.19 10.36 L 217.19 9.85 L 216.93 9.59 L 216.93 9.34 L 216.67 9.08 Z M 215.65 12.16 L 215.90 11.90 L 216.16 12.16 L 216.16 12.42 L 216.42 12.67 L 216.42 12.93 L 216.67 13.19 L 216.67 13.70 L 216.93 13.96 L 216.93 14.22 L 217.19 14.47 L 217.19 14.73 L 217.44 14.99 L 217.44 15.24 L 217.70 15.50 L 217.70 16.01 L 217.96 16.27 L 217.96 16.53 L 218.21 16.78 L 218.21 17.04 L 218.47 17.30 L 218.47 17.55 L 218.21 17.81 L 213.59 17.81 L 213.33 17.55 L 213.59 17.30 L 213.59 17.04 L 213.85 16.78 L 213.85 16.27 L 214.10 16.01 L 214.10 15.76 L 214.36 15.50 L 214.36 15.24 L 214.62 14.99 L 214.62 14.73 L 214.87 14.47 L 214.87 13.96 L 215.13 13.70 L 215.13 13.44 L 215.39 13.19 L 215.39 12.93 L 215.65 12.67 Z M 183.29 9.08 L 183.03 9.34 L 182.26 9.34 L 182.01 9.59 L 181.75 9.59 L 181.49 9.85 L 181.24 9.85 L 180.47 10.62 L 180.47 10.88 L 179.95 11.39 L 179.95 13.70 L 180.21 13.96 L 180.21 14.22 L 180.47 14.47 L 180.47 14.73 L 180.72 14.99 L 180.98 14.99 L 181.75 15.76 L 182.01 15.76 L 182.26 16.01 L 182.52 16.01 L 183.03 16.53 L 183.55 16.53 L 183.80 16.78 L 184.06 16.78 L 184.32 17.04 L 184.57 17.04 L 184.83 17.30 L 185.09 17.30 L 185.60 17.81 L 185.86 17.81 L 186.37 18.32 L 186.63 18.32 L 187.14 18.84 L 187.14 19.09 L 187.40 19.35 L 187.40 19.61 L 187.66 19.86 L 187.66 20.38 L 187.40 20.63 L 187.40 21.15 L 186.11 22.43 L 185.34 22.43 L 185.09 22.69 L 183.29 22.69 L 183.03 22.43 L 182.52 22.43 L 182.26 22.18 L 181.75 22.18 L 180.72 21.15 L 180.72 20.89 L 180.47 20.63 L 180.47 20.12 L 180.21 19.86 L 180.21 19.09 L 179.95 18.84 L 179.70 19.09 L 179.70 22.43 L 179.95 22.69 L 180.47 22.69 L 180.72 22.95 L 181.24 22.95 L 181.49 23.20 L 186.11 23.20 L 186.37 22.95 L 186.89 22.95 L 187.14 22.69 L 187.40 22.69 L 187.66 22.43 L 187.91 22.43 L 188.68 21.66 L 188.68 21.41 L 188.94 21.15 L 188.94 20.89 L 189.20 20.63 L 189.20 20.12 L 189.45 19.86 L 189.45 18.84 L 189.20 18.58 L 189.20 18.07 L 188.68 17.55 L 188.68 17.30 L 188.43 17.04 L 188.17 17.04 L 187.40 16.27 L 187.14 16.27 L 186.63 15.76 L 186.37 15.76 L 186.11 15.50 L 185.60 15.50 L 185.34 15.24 L 185.09 15.24 L 184.83 14.99 L 184.57 14.99 L 184.32 14.73 L 184.06 14.73 L 183.80 14.47 L 183.55 14.47 L 183.03 13.96 L 182.78 13.96 L 181.75 12.93 L 181.75 12.67 L 181.49 12.42 L 181.49 11.90 L 181.75 11.65 L 181.75 11.13 L 182.78 10.11 L 183.55 10.11 L 183.80 9.85 L 185.34 9.85 L 185.60 10.11 L 186.37 10.11 L 187.66 11.39 L 187.66 11.90 L 187.91 12.16 L 187.91 12.42 L 188.17 12.42 L 188.17 9.85 L 187.91 9.59 L 187.40 9.59 L 187.14 9.34 L 185.86 9.34 L 185.60 9.08 Z M 170.45 9.08 L 170.19 9.34 L 170.19 9.85 L 169.94 10.11 L 169.94 10.36 L 169.68 10.62 L 169.68 10.88 L 169.42 11.13 L 169.42 11.65 L 169.17 11.90 L 169.17 12.16 L 168.91 12.42 L 168.91 12.67 L 168.65 12.93 L 168.65 13.19 L 168.40 13.44 L 168.40 13.70 L 168.14 13.96 L 168.14 14.22 L 167.88 14.47 L 167.88 14.73 L 167.63 14.99 L 167.63 15.50 L 167.37 15.76 L 167.37 16.01 L 167.11 16.27 L 167.11 16.53 L 166.86 16.78 L 166.86 17.04 L 166.60 17.30 L 166.60 17.55 L 166.34 17.81 L 166.34 18.32 L 166.09 18.58 L 166.09 18.84 L 165.83 19.09 L 165.83 19.35 L 165.57 19.61 L 165.57 19.86 L 165.32 20.12 L 165.32 20.63 L 165.06 20.89 L 165.06 21.15 L 164.54 21.66 L 164.54 21.92 L 164.03 22.43 L 163.52 22.43 L 163.26 22.69 L 161.46 22.69 L 160.44 21.66 L 160.44 10.88 L 161.46 9.85 L 162.49 9.85 L 162.49 9.34 L 156.84 9.34 L 156.58 9.59 L 156.58 9.85 L 157.87 9.85 L 158.64 10.62 L 158.64 21.92 L 157.87 22.69 L 156.84 22.69 L 156.84 22.95 L 157.61 22.95 L 157.87 23.20 L 160.44 23.20 L 160.69 22.95 L 163.00 22.95 L 163.26 23.20 L 165.32 23.20 L 165.57 22.95 L 167.37 22.95 L 167.37 22.69 L 166.60 22.69 L 165.83 21.92 L 165.83 21.66 L 166.09 21.41 L 166.09 21.15 L 166.34 20.89 L 166.34 20.63 L 166.60 20.38 L 166.60 19.86 L 166.86 19.61 L 166.86 19.35 L 167.11 19.09 L 167.11 18.84 L 167.37 18.58 L 173.28 18.58 L 173.53 18.84 L 173.53 19.09 L 173.79 19.35 L 173.79 19.86 L 174.05 20.12 L 174.05 20.38 L 174.30 20.63 L 174.30 20.89 L 174.56 21.15 L 174.56 22.18 L 174.05 22.69 L 173.28 22.69 L 173.28 22.95 L 175.07 22.95 L 175.33 23.20 L 176.61 23.20 L 176.87 22.95 L 178.67 22.95 L 178.67 22.69 L 177.90 22.69 L 177.38 22.18 L 177.13 22.18 L 176.87 21.92 L 176.87 21.66 L 176.61 21.41 L 176.61 21.15 L 176.36 20.89 L 176.36 20.63 L 176.10 20.38 L 176.10 20.12 L 175.84 19.86 L 175.84 19.61 L 175.59 19.35 L 175.59 19.09 L 175.33 18.84 L 175.33 18.32 L 175.07 18.07 L 175.07 17.81 L 174.82 17.55 L 174.82 17.30 L 174.56 17.04 L 174.56 16.78 L 174.30 16.53 L 174.30 16.27 L 174.05 16.01 L 174.05 15.76 L 173.79 15.50 L 173.79 15.24 L 173.53 14.99 L 173.53 14.47 L 173.28 14.22 L 173.28 13.96 L 173.02 13.70 L 173.02 13.19 L 172.76 12.93 L 172.76 12.67 L 172.51 12.42 L 172.51 12.16 L 172.25 11.90 L 172.25 11.65 L 171.99 11.39 L 171.99 10.88 L 171.73 10.62 L 171.73 10.36 L 171.48 10.11 L 171.48 9.85 L 171.22 9.59 L 171.22 9.34 L 170.96 9.08 Z M 169.94 12.42 L 170.19 12.16 L 170.71 12.67 L 170.71 12.93 L 170.96 13.19 L 170.96 13.44 L 171.22 13.70 L 171.22 14.22 L 171.48 14.47 L 171.48 14.73 L 171.73 14.99 L 171.73 15.24 L 171.99 15.50 L 171.99 15.76 L 172.25 16.01 L 172.25 16.53 L 172.51 16.78 L 172.51 17.30 L 172.76 17.55 L 172.51 17.81 L 167.88 17.81 L 167.63 17.55 L 167.88 17.30 L 167.88 17.04 L 168.14 16.78 L 168.14 16.27 L 168.40 16.01 L 168.40 15.76 L 168.65 15.50 L 168.65 14.99 L 169.17 14.47 L 169.17 13.96 L 169.42 13.70 L 169.42 13.44 L 169.68 13.19 L 169.68 12.93 L 169.94 12.67 Z M 65.43 9.08 L 65.43 21.41 L 65.17 21.66 L 65.17 21.92 L 64.66 22.43 L 64.40 22.43 L 64.14 22.69 L 63.37 22.69 L 63.37 22.95 L 63.63 22.95 L 63.89 23.20 L 68.25 23.20 L 68.25 22.69 L 67.22 22.69 L 66.45 21.92 L 66.45 21.66 L 66.20 21.41 L 66.20 13.19 L 66.71 12.67 L 75.70 21.66 L 75.70 21.92 L 76.98 23.20 L 77.49 23.20 L 77.75 22.95 L 77.75 12.42 L 77.49 12.16 L 77.75 11.90 L 77.75 10.62 L 78.52 9.85 L 79.29 9.85 L 79.55 9.59 L 79.29 9.34 L 74.67 9.34 L 74.67 9.85 L 75.95 9.85 L 76.47 10.36 L 76.47 10.62 L 76.72 10.88 L 76.72 16.53 L 76.47 16.78 L 76.47 19.35 L 76.21 19.61 L 71.59 14.99 L 71.59 14.73 L 70.56 13.70 L 70.30 13.70 L 68.25 11.65 L 68.25 11.39 L 65.94 9.08 Z M 76.21 19.61 L 76.47 19.35 L 76.72 19.61 L 76.47 19.86 Z M 66.20 12.67 L 66.45 12.42 L 66.71 12.67 L 66.45 12.93 Z M 27.42 9.08 L 27.16 9.34 L 25.62 9.34 L 25.37 9.59 L 24.85 9.59 L 24.60 9.85 L 24.34 9.85 L 24.08 10.11 L 23.83 10.11 L 23.31 10.62 L 23.06 10.62 L 21.52 12.16 L 21.52 12.42 L 21.00 12.93 L 21.00 13.44 L 20.75 13.70 L 20.75 14.22 L 20.49 14.47 L 20.49 18.07 L 20.75 18.32 L 20.75 18.84 L 21.00 19.09 L 21.00 19.35 L 21.26 19.61 L 21.26 19.86 L 21.52 20.12 L 21.52 20.38 L 23.31 22.18 L 23.57 22.18 L 23.83 22.43 L 24.08 22.43 L 24.34 22.69 L 24.60 22.69 L 24.85 22.95 L 25.37 22.95 L 25.62 23.20 L 27.68 23.20 L 27.94 23.46 L 28.19 23.20 L 30.25 23.20 L 30.50 22.95 L 31.02 22.95 L 31.27 22.69 L 31.53 22.69 L 31.79 22.43 L 32.04 22.43 L 32.56 21.92 L 32.81 21.92 L 34.61 20.12 L 34.61 19.86 L 34.87 19.61 L 34.87 19.35 L 35.13 19.09 L 35.13 18.58 L 35.38 18.32 L 35.38 17.81 L 35.64 17.55 L 35.64 14.73 L 35.38 14.47 L 35.38 13.70 L 35.13 13.44 L 35.13 13.19 L 34.87 12.93 L 34.87 12.67 L 34.61 12.42 L 34.61 12.16 L 33.07 10.62 L 32.81 10.62 L 32.30 10.11 L 32.04 10.11 L 31.79 9.85 L 31.53 9.85 L 31.27 9.59 L 30.76 9.59 L 30.50 9.34 L 28.96 9.34 L 28.71 9.08 Z M 26.91 10.11 L 27.16 9.85 L 28.71 9.85 L 28.96 10.11 L 29.73 10.11 L 29.99 10.36 L 30.25 10.36 L 30.50 10.62 L 30.76 10.62 L 32.56 12.42 L 32.56 12.67 L 32.81 12.93 L 32.81 13.19 L 33.07 13.44 L 33.07 13.96 L 33.33 14.22 L 33.33 14.99 L 33.58 15.24 L 33.58 17.81 L 33.33 18.07 L 33.33 18.84 L 33.07 19.09 L 33.07 19.35 L 32.81 19.61 L 32.81 19.86 L 32.56 20.12 L 32.56 20.38 L 31.02 21.92 L 30.76 21.92 L 30.50 22.18 L 30.25 22.18 L 29.99 22.43 L 28.96 22.43 L 28.71 22.69 L 27.42 22.69 L 27.16 22.43 L 26.39 22.43 L 26.14 22.18 L 25.88 22.18 L 25.62 21.92 L 25.37 21.92 L 25.11 21.66 L 24.85 21.66 L 23.83 20.63 L 23.83 20.38 L 23.31 19.86 L 23.31 19.61 L 23.06 19.35 L 23.06 18.84 L 22.80 18.58 L 22.80 17.81 L 22.54 17.55 L 22.54 14.22 L 22.80 13.96 L 22.80 13.44 L 23.06 13.19 L 23.06 12.93 L 23.31 12.67 L 23.31 12.42 L 23.57 12.16 L 23.57 11.90 L 24.85 10.62 L 25.11 10.62 L 25.37 10.36 L 25.88 10.36 L 26.14 10.11 Z M 197.93 6.51 L 197.93 7.03 L 199.21 7.03 L 199.98 7.80 L 199.98 21.66 L 199.72 21.92 L 199.72 22.18 L 199.21 22.69 L 197.93 22.69 L 197.93 22.95 L 198.18 23.20 L 198.44 22.95 L 198.70 22.95 L 198.95 23.20 L 203.58 23.20 L 203.83 22.95 L 204.09 23.20 L 204.35 23.20 L 204.35 22.69 L 203.32 22.69 L 203.06 22.43 L 202.81 22.43 L 202.04 21.66 L 202.04 7.54 L 202.29 7.28 L 205.37 7.28 L 205.63 7.54 L 206.40 7.54 L 207.94 9.08 L 207.94 9.59 L 208.20 9.85 L 208.20 10.62 L 208.46 10.88 L 208.46 12.16 L 208.20 12.42 L 208.20 12.93 L 207.94 13.19 L 207.94 13.44 L 207.68 13.70 L 207.68 13.96 L 206.91 14.73 L 206.66 14.73 L 206.40 14.99 L 206.14 14.99 L 205.89 15.24 L 205.63 15.24 L 205.37 15.50 L 202.55 15.50 L 202.55 15.76 L 202.81 16.01 L 206.40 16.01 L 206.66 15.76 L 207.43 15.76 L 207.68 15.50 L 208.20 15.50 L 208.71 14.99 L 208.97 14.99 L 210.00 13.96 L 210.00 13.70 L 210.25 13.44 L 210.25 13.19 L 210.51 12.93 L 210.51 12.16 L 210.77 11.90 L 210.77 10.62 L 210.51 10.36 L 210.51 9.59 L 210.25 9.34 L 210.25 9.08 L 210.00 8.82 L 210.00 8.57 L 208.97 7.54 L 208.71 7.54 L 208.46 7.28 L 208.20 7.28 L 207.94 7.03 L 207.43 7.03 L 207.17 6.77 L 206.40 6.77 L 206.14 6.51 Z M 138.35 6.51 L 138.10 6.77 L 138.35 7.03 L 139.64 7.03 L 140.41 7.80 L 140.41 21.66 L 140.15 21.92 L 140.15 22.18 L 139.89 22.43 L 139.64 22.43 L 139.38 22.69 L 138.35 22.69 L 138.35 22.95 L 138.61 23.20 L 142.46 23.20 L 142.72 22.95 L 145.29 22.95 L 145.54 23.20 L 148.37 23.20 L 148.62 22.95 L 149.91 22.95 L 150.16 22.69 L 150.68 22.69 L 150.94 22.43 L 151.19 22.43 L 151.45 22.18 L 151.96 22.18 L 152.48 21.66 L 152.73 21.66 L 153.50 20.89 L 153.76 20.89 L 154.27 20.38 L 154.27 20.12 L 154.79 19.61 L 154.79 19.35 L 155.04 19.09 L 155.04 18.84 L 155.30 18.58 L 155.30 18.32 L 155.56 18.07 L 155.56 17.55 L 155.81 17.30 L 155.81 16.53 L 156.07 16.27 L 156.07 13.44 L 155.81 13.19 L 155.81 12.42 L 155.56 12.16 L 155.56 11.65 L 155.30 11.39 L 155.30 11.13 L 155.04 10.88 L 155.04 10.62 L 154.79 10.36 L 154.79 10.11 L 154.02 9.34 L 154.02 9.08 L 153.76 9.08 L 152.73 8.05 L 152.48 8.05 L 152.22 7.80 L 151.96 7.80 L 151.71 7.54 L 151.45 7.54 L 151.19 7.28 L 150.94 7.28 L 150.68 7.03 L 149.65 7.03 L 149.39 6.77 L 148.11 6.77 L 147.85 6.51 Z M 142.46 7.54 L 142.72 7.28 L 146.83 7.28 L 147.08 7.54 L 148.88 7.54 L 149.14 7.80 L 149.39 7.80 L 149.65 8.05 L 149.91 8.05 L 150.16 8.31 L 150.42 8.31 L 150.94 8.82 L 151.19 8.82 L 152.22 9.85 L 152.22 10.11 L 152.73 10.62 L 152.73 10.88 L 152.99 11.13 L 152.99 11.39 L 153.25 11.65 L 153.25 12.16 L 153.50 12.42 L 153.50 13.44 L 153.76 13.70 L 153.76 16.27 L 153.50 16.53 L 153.50 17.55 L 153.25 17.81 L 153.25 18.32 L 152.99 18.58 L 152.99 18.84 L 152.73 19.09 L 152.73 19.35 L 150.68 21.41 L 150.42 21.41 L 150.16 21.66 L 149.91 21.66 L 149.65 21.92 L 148.62 21.92 L 148.37 22.18 L 142.97 22.18 L 142.46 21.66 Z M 119.61 6.25 L 119.35 6.51 L 118.58 6.51 L 118.32 6.77 L 118.07 6.77 L 117.81 7.03 L 117.55 7.03 L 117.04 7.54 L 116.78 7.54 L 116.53 7.80 L 116.53 8.05 L 116.01 8.57 L 116.01 8.82 L 115.76 9.08 L 115.76 9.85 L 115.50 10.11 L 115.76 10.36 L 115.76 11.65 L 116.01 11.90 L 116.01 12.16 L 116.27 12.42 L 116.27 12.67 L 116.53 12.93 L 116.53 13.19 L 117.04 13.70 L 116.78 13.96 L 116.53 13.96 L 116.27 14.22 L 116.01 14.22 L 115.76 14.47 L 115.50 14.47 L 114.99 14.99 L 114.73 14.99 L 113.96 15.76 L 113.96 16.01 L 113.70 16.27 L 113.70 16.53 L 113.44 16.78 L 113.44 19.61 L 113.70 19.86 L 113.70 20.38 L 115.50 22.18 L 115.76 22.18 L 116.01 22.43 L 116.27 22.43 L 116.53 22.69 L 116.78 22.69 L 117.04 22.95 L 117.55 22.95 L 117.81 23.20 L 123.46 23.20 L 123.72 22.95 L 124.23 22.95 L 124.49 22.69 L 125.00 22.69 L 125.26 22.43 L 125.51 22.43 L 126.03 21.92 L 126.28 21.92 L 126.54 21.66 L 127.05 21.66 L 127.57 22.18 L 127.82 22.18 L 128.08 22.43 L 128.34 22.43 L 128.59 22.69 L 128.85 22.69 L 129.11 22.95 L 129.88 22.95 L 130.14 23.20 L 132.70 23.20 L 132.96 22.95 L 132.96 22.69 L 131.68 22.69 L 131.42 22.43 L 131.16 22.43 L 130.91 22.18 L 130.39 22.18 L 130.14 21.92 L 129.88 21.92 L 129.37 21.41 L 129.11 21.41 L 128.59 20.89 L 128.34 20.89 L 127.82 20.38 L 127.82 20.12 L 128.08 19.86 L 128.08 19.61 L 128.59 19.09 L 128.59 18.58 L 128.85 18.32 L 128.85 17.81 L 129.11 17.55 L 129.11 14.47 L 129.37 14.22 L 129.62 14.22 L 129.88 13.96 L 130.65 13.96 L 130.65 13.70 L 130.39 13.44 L 130.14 13.70 L 125.26 13.70 L 125.00 13.44 L 124.74 13.44 L 124.74 13.96 L 125.51 13.96 L 125.77 14.22 L 126.28 14.22 L 126.80 14.73 L 126.80 14.99 L 127.05 15.24 L 127.05 15.50 L 127.31 15.76 L 127.31 18.07 L 127.05 18.32 L 127.05 19.09 L 126.80 19.35 L 126.28 19.35 L 125.51 18.58 L 125.26 18.58 L 124.23 17.55 L 123.97 17.55 L 123.20 16.78 L 122.95 16.78 L 120.12 13.96 L 119.86 13.96 L 118.84 12.93 L 118.84 12.67 L 118.07 11.90 L 118.07 11.65 L 117.81 11.39 L 117.81 10.88 L 117.55 10.62 L 117.55 9.34 L 117.81 9.08 L 117.81 8.57 L 119.09 7.28 L 119.35 7.28 L 119.61 7.03 L 122.18 7.03 L 122.43 7.28 L 122.69 7.28 L 123.20 7.80 L 123.46 7.80 L 124.23 8.57 L 124.23 8.82 L 124.49 9.08 L 124.49 9.59 L 124.74 9.85 L 124.74 10.36 L 125.00 10.36 L 125.26 10.11 L 125.26 7.80 L 125.00 7.54 L 125.00 7.28 L 124.74 7.28 L 124.49 7.03 L 124.23 7.03 L 123.97 6.77 L 123.72 6.77 L 123.46 6.51 L 122.69 6.51 L 122.43 6.25 Z M 117.30 14.73 L 117.55 14.47 L 117.81 14.47 L 118.84 15.50 L 119.09 15.50 L 121.15 17.55 L 121.41 17.55 L 122.43 18.58 L 122.69 18.58 L 123.46 19.35 L 123.72 19.35 L 124.49 20.12 L 124.74 20.12 L 125.51 20.89 L 125.51 21.15 L 125.26 21.41 L 125.00 21.41 L 124.74 21.66 L 124.49 21.66 L 124.23 21.92 L 123.97 21.92 L 123.72 22.18 L 123.20 22.18 L 122.95 22.43 L 121.92 22.43 L 121.66 22.69 L 120.38 22.69 L 120.12 22.43 L 119.09 22.43 L 118.84 22.18 L 118.32 22.18 L 118.07 21.92 L 117.81 21.92 L 117.30 21.41 L 117.04 21.41 L 116.27 20.63 L 116.27 20.38 L 116.01 20.12 L 116.01 19.86 L 115.76 19.61 L 115.76 19.09 L 115.50 18.84 L 115.50 17.04 L 115.76 16.78 L 115.76 16.27 L 116.01 16.01 L 116.01 15.76 L 117.04 14.73 Z M 9.45 6.25 L 9.19 6.51 L 8.42 6.51 L 8.16 6.77 L 7.39 6.77 L 7.14 7.03 L 6.88 7.03 L 6.62 7.28 L 6.11 7.28 L 5.85 7.54 L 5.59 7.54 L 3.28 9.85 L 3.28 10.11 L 3.03 10.36 L 3.03 10.62 L 2.77 10.88 L 2.77 11.13 L 2.51 11.39 L 2.51 11.90 L 2.26 12.16 L 2.26 12.93 L 2.00 13.19 L 2.00 16.27 L 2.26 16.53 L 2.26 17.81 L 2.51 18.07 L 2.51 18.32 L 2.77 18.58 L 2.77 18.84 L 3.03 19.09 L 3.03 19.35 L 3.80 20.12 L 3.80 20.38 L 4.82 21.41 L 5.08 21.41 L 5.85 22.18 L 6.11 22.18 L 6.37 22.43 L 6.62 22.43 L 6.88 22.69 L 7.14 22.69 L 7.39 22.95 L 8.16 22.95 L 8.42 23.20 L 10.22 23.20 L 10.47 23.46 L 12.27 23.46 L 12.53 23.20 L 14.33 23.20 L 14.58 22.95 L 15.10 22.95 L 15.35 22.69 L 15.87 22.69 L 16.12 22.43 L 16.38 22.43 L 16.64 22.18 L 16.89 22.18 L 17.41 21.66 L 17.66 21.66 L 17.66 17.81 L 17.92 17.55 L 17.92 16.27 L 18.43 15.76 L 18.69 15.76 L 18.95 15.50 L 19.46 15.50 L 19.72 15.24 L 13.56 15.24 L 13.56 15.50 L 14.58 15.50 L 14.84 15.76 L 15.10 15.76 L 15.87 16.53 L 15.87 21.15 L 15.61 21.41 L 15.35 21.41 L 14.84 21.92 L 14.58 21.92 L 14.33 22.18 L 14.07 22.18 L 13.81 22.43 L 12.53 22.43 L 12.27 22.69 L 10.22 22.69 L 9.96 22.43 L 9.19 22.43 L 8.93 22.18 L 8.68 22.18 L 8.42 21.92 L 8.16 21.92 L 7.91 21.66 L 7.65 21.66 L 5.85 19.86 L 5.85 19.61 L 5.59 19.35 L 5.59 19.09 L 5.08 18.58 L 5.08 18.07 L 4.82 17.81 L 4.82 17.30 L 4.57 17.04 L 4.57 16.01 L 4.31 15.76 L 4.31 13.19 L 4.57 12.93 L 4.57 11.65 L 4.82 11.39 L 4.82 11.13 L 5.08 10.88 L 5.08 10.62 L 5.34 10.36 L 5.34 10.11 L 5.59 9.85 L 5.59 9.59 L 7.14 8.05 L 7.39 8.05 L 7.65 7.80 L 7.91 7.80 L 8.16 7.54 L 8.42 7.54 L 8.68 7.28 L 9.19 7.28 L 9.45 7.03 L 13.04 7.03 L 13.30 7.28 L 13.81 7.28 L 14.07 7.54 L 14.33 7.54 L 14.58 7.80 L 14.84 7.80 L 15.35 8.31 L 15.61 8.31 L 16.38 9.08 L 16.38 9.34 L 16.64 9.59 L 16.64 9.85 L 16.89 10.11 L 16.89 10.62 L 17.41 10.62 L 17.41 9.85 L 17.15 9.59 L 17.15 7.54 L 16.89 7.28 L 16.64 7.28 L 16.38 7.03 L 15.87 7.03 L 15.61 6.77 L 14.84 6.77 L 14.58 6.51 L 13.56 6.51 L 13.30 6.25 Z"/></g>
  <g fill="#7a776d" fill-rule="evenodd"><path d="M 159.67 32.96 L 159.67 33.22 L 160.44 33.22 L 160.95 33.73 L 160.95 35.78 L 161.21 36.04 L 161.21 37.58 L 160.95 37.84 L 160.95 39.12 L 161.21 39.38 L 161.21 41.18 L 160.95 41.43 L 160.95 42.46 L 160.44 42.97 L 159.67 42.97 L 159.67 43.23 L 163.77 43.23 L 163.77 42.97 L 162.75 42.97 L 162.49 42.72 L 162.49 42.46 L 162.23 42.20 L 162.23 33.73 L 162.75 33.22 L 163.52 33.22 L 163.52 32.96 Z M 139.89 32.96 L 139.64 33.22 L 139.64 33.47 L 139.38 33.73 L 139.38 33.99 L 139.12 34.24 L 139.12 34.50 L 138.87 34.76 L 138.87 35.27 L 138.61 35.53 L 138.61 35.78 L 138.35 36.04 L 138.35 36.30 L 138.10 36.56 L 138.10 36.81 L 137.84 37.07 L 137.84 37.58 L 137.58 37.84 L 137.58 38.10 L 137.33 38.35 L 137.33 38.61 L 137.07 38.87 L 137.07 39.12 L 136.81 39.38 L 136.81 39.64 L 136.56 39.89 L 136.56 40.41 L 136.30 40.66 L 136.30 40.92 L 136.04 41.18 L 136.04 41.43 L 135.78 41.69 L 135.78 41.95 L 134.76 42.97 L 133.99 42.97 L 133.99 43.23 L 137.33 43.23 L 137.07 42.97 L 136.56 42.97 L 136.30 42.72 L 136.30 42.20 L 136.56 41.95 L 136.56 41.69 L 136.81 41.43 L 136.81 41.18 L 137.07 40.92 L 137.07 40.41 L 137.33 40.15 L 137.33 39.89 L 137.58 39.64 L 141.95 39.64 L 142.20 39.89 L 142.20 40.15 L 142.46 40.41 L 142.46 40.92 L 142.72 41.18 L 142.72 41.43 L 142.97 41.69 L 142.97 42.20 L 143.23 42.46 L 142.72 42.97 L 142.20 42.97 L 142.20 43.23 L 146.06 43.23 L 145.80 42.97 L 145.03 42.97 L 144.52 42.46 L 144.52 42.20 L 144.26 41.95 L 144.26 41.69 L 144.00 41.43 L 144.00 41.18 L 143.75 40.92 L 143.75 40.66 L 143.49 40.41 L 143.49 40.15 L 143.23 39.89 L 143.23 39.38 L 142.97 39.12 L 142.97 38.87 L 142.72 38.61 L 142.72 38.35 L 142.46 38.10 L 142.46 37.84 L 142.20 37.58 L 142.20 37.33 L 141.95 37.07 L 141.95 36.56 L 141.69 36.30 L 141.69 36.04 L 141.43 35.78 L 141.43 35.53 L 141.18 35.27 L 141.18 35.01 L 140.92 34.76 L 140.92 34.50 L 140.66 34.24 L 140.66 33.99 L 140.41 33.73 L 140.41 33.22 L 140.15 32.96 Z M 139.38 35.27 L 139.64 35.01 L 139.89 35.01 L 140.15 35.27 L 140.15 35.53 L 140.41 35.78 L 140.41 36.04 L 140.66 36.30 L 140.66 36.81 L 140.92 37.07 L 140.92 37.33 L 141.18 37.58 L 141.18 37.84 L 141.43 38.10 L 141.43 38.35 L 141.69 38.61 L 141.69 39.12 L 141.43 39.38 L 138.10 39.38 L 137.84 39.12 L 137.84 38.61 L 138.10 38.35 L 138.10 38.10 L 138.35 37.84 L 138.35 37.33 L 138.61 37.07 L 138.61 36.81 L 138.87 36.56 L 138.87 36.30 L 139.12 36.04 L 139.12 35.78 L 139.38 35.53 Z M 95.98 32.96 L 95.98 33.22 L 96.75 33.22 L 97.52 33.99 L 97.52 34.24 L 97.78 34.50 L 97.78 34.76 L 98.04 35.01 L 98.04 35.27 L 98.29 35.53 L 98.29 36.04 L 98.55 36.30 L 98.55 36.56 L 98.81 36.81 L 98.81 37.07 L 99.06 37.33 L 99.06 37.84 L 99.32 38.10 L 99.32 38.35 L 99.58 38.61 L 99.58 38.87 L 99.84 39.12 L 99.84 39.38 L 100.09 39.64 L 100.09 39.89 L 100.35 40.15 L 100.35 40.66 L 100.61 40.92 L 100.61 41.18 L 100.86 41.43 L 100.86 41.69 L 101.12 41.95 L 101.12 42.46 L 101.63 42.97 L 101.63 43.23 L 101.89 43.49 L 102.15 43.23 L 102.15 42.97 L 102.40 42.72 L 102.40 42.46 L 102.66 42.20 L 102.66 41.69 L 102.92 41.43 L 102.92 41.18 L 103.17 40.92 L 103.17 40.66 L 103.43 40.41 L 103.43 39.89 L 103.69 39.64 L 103.69 39.38 L 103.94 39.12 L 103.94 38.87 L 104.20 38.61 L 104.20 38.35 L 104.46 38.10 L 104.46 37.84 L 104.71 37.58 L 104.71 37.33 L 104.97 37.07 L 104.97 36.56 L 105.23 36.30 L 105.23 36.04 L 105.48 35.78 L 105.48 35.53 L 105.74 35.27 L 105.74 35.01 L 106.00 34.76 L 106.00 34.50 L 106.25 34.24 L 106.25 33.99 L 107.03 33.22 L 107.80 33.22 L 107.80 32.96 L 104.46 32.96 L 104.46 33.22 L 104.97 33.22 L 105.48 33.73 L 105.48 34.24 L 105.23 34.50 L 105.23 34.76 L 104.97 35.01 L 104.97 35.53 L 104.71 35.78 L 104.71 36.04 L 104.46 36.30 L 104.46 36.56 L 104.20 36.81 L 104.20 37.07 L 103.94 37.33 L 103.94 37.84 L 103.69 38.10 L 103.69 38.35 L 103.43 38.61 L 103.43 38.87 L 103.17 39.12 L 103.17 39.64 L 102.92 39.89 L 102.92 40.15 L 102.40 40.66 L 102.40 41.18 L 102.15 41.43 L 101.63 40.92 L 101.63 40.66 L 101.38 40.41 L 101.38 40.15 L 101.12 39.89 L 101.12 39.38 L 100.86 39.12 L 100.86 38.87 L 100.61 38.61 L 100.61 38.35 L 100.35 38.10 L 100.35 37.58 L 100.09 37.33 L 100.09 37.07 L 99.84 36.81 L 99.84 36.56 L 99.58 36.30 L 99.58 36.04 L 99.32 35.78 L 99.32 35.27 L 99.06 35.01 L 99.06 34.76 L 98.81 34.50 L 98.81 33.47 L 99.06 33.22 L 99.84 33.22 L 99.84 32.96 Z M 83.40 32.96 L 83.40 33.22 L 84.43 33.22 L 84.68 33.47 L 84.68 33.73 L 84.94 33.99 L 84.94 42.20 L 84.68 42.46 L 84.68 42.72 L 84.43 42.97 L 84.17 42.97 L 83.91 43.23 L 83.40 43.23 L 90.85 43.23 L 91.10 42.97 L 91.87 42.97 L 92.13 42.72 L 92.39 42.72 L 92.65 42.46 L 92.90 42.46 L 94.44 40.92 L 94.44 40.66 L 94.70 40.41 L 94.70 40.15 L 94.96 39.89 L 94.96 36.56 L 94.70 36.30 L 94.70 36.04 L 94.44 35.78 L 94.44 35.53 L 93.93 35.01 L 93.93 34.76 L 93.16 33.99 L 92.90 33.99 L 92.65 33.73 L 92.39 33.73 L 92.13 33.47 L 91.87 33.47 L 91.62 33.22 L 90.59 33.22 L 90.33 32.96 Z M 86.23 33.73 L 86.48 33.47 L 90.08 33.47 L 90.33 33.73 L 90.85 33.73 L 91.10 33.99 L 91.62 33.99 L 93.16 35.53 L 93.16 35.78 L 93.42 36.04 L 93.42 36.56 L 93.67 36.81 L 93.67 39.64 L 93.42 39.89 L 93.42 40.41 L 92.90 40.92 L 92.90 41.18 L 92.13 41.95 L 91.87 41.95 L 91.62 42.20 L 91.36 42.20 L 91.10 42.46 L 90.59 42.46 L 90.33 42.72 L 86.48 42.72 L 86.23 42.46 Z M 76.72 32.96 L 76.47 33.22 L 76.47 33.47 L 76.21 33.73 L 76.21 33.99 L 75.95 34.24 L 75.95 34.76 L 75.70 35.01 L 75.70 35.27 L 75.44 35.53 L 75.44 35.78 L 75.18 36.04 L 75.18 36.30 L 74.93 36.56 L 74.93 37.07 L 74.67 37.33 L 74.67 37.58 L 74.41 37.84 L 74.41 38.10 L 74.16 38.35 L 74.16 38.61 L 73.90 38.87 L 73.90 39.12 L 73.64 39.38 L 73.64 39.64 L 73.39 39.89 L 73.39 40.15 L 73.13 40.41 L 73.13 40.66 L 72.87 40.92 L 72.87 41.18 L 72.62 41.43 L 72.62 41.95 L 71.59 42.97 L 71.08 42.97 L 70.82 43.23 L 74.16 43.23 L 74.16 42.97 L 73.39 42.97 L 73.13 42.72 L 73.13 42.20 L 73.39 41.95 L 73.39 41.43 L 73.64 41.18 L 73.64 40.92 L 73.90 40.66 L 73.90 40.41 L 74.16 40.15 L 74.16 39.89 L 74.41 39.64 L 78.78 39.64 L 79.04 39.89 L 79.04 40.15 L 79.29 40.41 L 79.29 40.66 L 79.55 40.92 L 79.55 41.43 L 79.81 41.69 L 79.81 41.95 L 80.06 42.20 L 80.06 42.46 L 79.29 43.23 L 79.04 42.97 L 79.04 43.23 L 82.89 43.23 L 82.63 42.97 L 81.86 42.97 L 81.35 42.46 L 81.35 42.20 L 81.09 41.95 L 81.09 41.69 L 80.83 41.43 L 80.83 41.18 L 80.58 40.92 L 80.58 40.66 L 80.32 40.41 L 80.32 40.15 L 80.06 39.89 L 80.06 39.64 L 79.81 39.38 L 79.81 39.12 L 79.55 38.87 L 79.55 38.35 L 79.29 38.10 L 79.29 37.84 L 79.04 37.58 L 79.04 37.33 L 78.78 37.07 L 78.78 36.81 L 78.52 36.56 L 78.52 36.04 L 78.27 35.78 L 78.27 35.53 L 78.01 35.27 L 78.01 35.01 L 77.75 34.76 L 77.75 34.50 L 77.49 34.24 L 77.49 33.99 L 77.24 33.73 L 77.24 33.22 L 76.98 32.96 Z M 76.21 35.01 L 76.47 34.76 L 76.98 35.27 L 76.98 35.53 L 77.24 35.78 L 77.24 36.30 L 77.49 36.56 L 77.49 36.81 L 77.75 37.07 L 77.75 37.33 L 78.01 37.58 L 78.01 37.84 L 78.27 38.10 L 78.27 38.61 L 78.52 38.87 L 78.27 39.12 L 76.21 39.12 L 75.95 39.38 L 75.18 39.38 L 74.67 38.87 L 74.67 38.61 L 74.93 38.35 L 74.93 37.84 L 75.18 37.58 L 75.18 37.33 L 75.44 37.07 L 75.44 36.81 L 75.70 36.56 L 75.70 36.30 L 75.95 36.04 L 75.95 35.78 L 76.21 35.53 Z M 170.45 32.70 L 170.45 32.96 L 170.19 33.22 L 170.19 33.47 L 169.94 33.73 L 169.94 33.99 L 169.68 34.24 L 169.68 34.50 L 169.42 34.76 L 169.42 35.01 L 169.17 35.27 L 169.17 35.53 L 168.91 35.78 L 168.91 36.04 L 168.65 36.30 L 168.65 36.81 L 168.40 37.07 L 168.40 37.33 L 168.14 37.58 L 168.14 37.84 L 167.88 38.10 L 167.88 38.35 L 167.63 38.61 L 167.63 38.87 L 167.37 39.12 L 167.37 39.38 L 167.11 39.64 L 167.11 40.15 L 166.86 40.41 L 166.86 40.66 L 166.60 40.92 L 166.60 41.18 L 166.34 41.43 L 166.34 41.69 L 166.09 41.95 L 166.09 42.20 L 165.32 42.97 L 164.54 42.97 L 164.54 43.23 L 167.88 43.23 L 167.63 42.97 L 167.11 42.97 L 166.86 42.72 L 166.86 41.95 L 167.11 41.69 L 167.11 41.43 L 167.37 41.18 L 167.37 40.66 L 167.63 40.41 L 167.63 40.15 L 168.14 39.64 L 172.25 39.64 L 172.76 40.15 L 172.76 40.41 L 173.02 40.66 L 173.02 40.92 L 173.28 41.18 L 173.28 41.95 L 173.53 42.20 L 173.53 42.72 L 173.28 42.97 L 172.76 42.97 L 172.51 43.23 L 176.36 43.23 L 176.36 42.97 L 175.59 42.97 L 174.56 41.95 L 174.56 41.43 L 174.30 41.18 L 174.30 40.92 L 174.05 40.66 L 174.05 40.41 L 173.79 40.15 L 173.79 39.89 L 173.53 39.64 L 173.53 39.12 L 173.28 38.87 L 173.28 38.61 L 173.02 38.35 L 173.02 38.10 L 172.76 37.84 L 172.76 37.58 L 172.51 37.33 L 172.51 36.81 L 172.25 36.56 L 172.25 36.30 L 171.99 36.04 L 171.99 35.78 L 171.73 35.53 L 171.73 35.01 L 171.48 34.76 L 171.48 34.50 L 171.22 34.24 L 171.22 33.99 L 170.96 33.73 L 170.96 33.47 L 170.71 33.22 L 170.71 32.96 Z M 169.94 35.01 L 170.19 34.76 L 170.45 35.01 L 170.45 35.27 L 170.71 35.53 L 170.71 35.78 L 170.96 36.04 L 170.96 36.30 L 171.22 36.56 L 171.22 37.07 L 171.48 37.33 L 171.48 37.58 L 171.73 37.84 L 171.73 38.10 L 171.99 38.35 L 171.99 38.87 L 171.73 39.12 L 171.22 39.12 L 170.96 39.38 L 168.65 39.38 L 168.40 39.12 L 168.40 38.35 L 168.65 38.10 L 168.65 37.84 L 168.91 37.58 L 168.91 37.33 L 169.17 37.07 L 169.17 36.81 L 169.42 36.56 L 169.42 36.04 L 169.68 35.78 L 169.68 35.53 L 169.94 35.27 Z M 152.22 32.70 L 151.96 32.96 L 150.42 32.96 L 150.16 33.22 L 149.91 33.22 L 149.65 33.47 L 149.39 33.47 L 148.88 33.99 L 148.62 33.99 L 147.85 34.76 L 147.85 35.01 L 147.34 35.53 L 147.34 35.78 L 147.08 36.04 L 147.08 36.81 L 146.83 37.07 L 146.83 39.12 L 147.08 39.38 L 147.08 40.15 L 147.34 40.41 L 147.34 40.66 L 147.60 40.92 L 147.60 41.18 L 148.88 42.46 L 149.14 42.46 L 149.39 42.72 L 149.65 42.72 L 149.91 42.97 L 150.16 42.97 L 150.42 43.23 L 151.19 43.23 L 151.45 43.49 L 154.02 43.49 L 154.27 43.23 L 155.04 43.23 L 155.30 42.97 L 155.56 42.97 L 155.81 42.72 L 156.07 42.72 L 156.33 42.46 L 156.58 42.46 L 157.10 41.95 L 157.10 41.43 L 157.35 41.18 L 157.35 39.64 L 157.10 39.89 L 157.10 40.66 L 156.84 40.92 L 156.84 41.18 L 155.56 42.46 L 155.30 42.46 L 155.04 42.72 L 154.27 42.72 L 154.02 42.97 L 152.22 42.97 L 151.96 42.72 L 151.19 42.72 L 150.94 42.46 L 150.68 42.46 L 150.42 42.20 L 150.16 42.20 L 148.88 40.92 L 148.88 40.66 L 148.62 40.41 L 148.62 40.15 L 148.37 39.89 L 148.37 39.12 L 148.11 38.87 L 148.11 37.07 L 148.37 36.81 L 148.37 36.04 L 148.62 35.78 L 148.62 35.53 L 148.88 35.27 L 148.88 35.01 L 149.91 33.99 L 150.16 33.99 L 150.42 33.73 L 150.68 33.73 L 150.94 33.47 L 151.45 33.47 L 151.71 33.22 L 154.02 33.22 L 154.27 33.47 L 155.04 33.47 L 155.30 33.73 L 155.56 33.73 L 156.58 34.76 L 156.58 35.01 L 156.84 35.27 L 156.84 35.53 L 157.10 35.78 L 157.10 36.04 L 157.10 34.50 L 156.84 34.24 L 156.84 33.47 L 156.33 33.47 L 156.07 33.22 L 155.30 33.22 L 155.04 32.96 L 154.02 32.96 L 153.76 32.70 Z M 127.31 32.70 L 127.05 32.96 L 126.03 32.96 L 125.77 33.22 L 125.51 33.22 L 125.26 33.47 L 125.00 33.47 L 124.74 33.73 L 124.49 33.73 L 123.20 35.01 L 123.20 35.27 L 122.69 35.78 L 122.69 36.30 L 122.43 36.56 L 122.43 39.64 L 122.69 39.89 L 122.69 40.41 L 122.95 40.66 L 122.95 40.92 L 124.49 42.46 L 124.74 42.46 L 125.00 42.72 L 125.26 42.72 L 125.77 43.23 L 126.80 43.23 L 127.05 43.49 L 129.62 43.49 L 129.88 43.23 L 130.65 43.23 L 130.91 42.97 L 131.16 42.97 L 131.42 42.72 L 131.68 42.72 L 131.93 42.46 L 132.19 42.46 L 132.45 42.20 L 132.45 41.95 L 132.70 41.69 L 132.70 40.92 L 132.96 40.66 L 132.96 39.64 L 132.70 39.89 L 132.70 40.41 L 132.45 40.66 L 132.45 40.92 L 132.19 41.18 L 132.19 41.43 L 131.16 42.46 L 130.91 42.46 L 130.65 42.72 L 129.88 42.72 L 129.62 42.97 L 127.82 42.97 L 127.57 42.72 L 126.80 42.72 L 126.54 42.46 L 126.03 42.46 L 125.51 41.95 L 125.26 41.95 L 124.49 41.18 L 124.49 40.92 L 124.23 40.66 L 124.23 40.41 L 123.97 40.15 L 123.97 39.64 L 123.72 39.38 L 123.72 36.56 L 123.97 36.30 L 123.97 35.78 L 124.23 35.53 L 124.23 35.27 L 125.77 33.73 L 126.03 33.73 L 126.28 33.47 L 127.05 33.47 L 127.31 33.22 L 129.62 33.22 L 129.88 33.47 L 130.39 33.47 L 130.65 33.73 L 130.91 33.73 L 131.16 33.99 L 131.42 33.99 L 132.19 34.76 L 132.19 35.01 L 132.45 35.27 L 132.45 35.53 L 132.70 35.78 L 132.70 36.04 L 132.70 34.76 L 132.45 34.50 L 132.45 33.47 L 131.93 33.47 L 131.68 33.22 L 130.91 33.22 L 130.65 32.96 L 129.88 32.96 L 129.62 32.70 Z M 113.70 32.70 L 113.44 32.96 L 112.42 32.96 L 112.16 33.22 L 111.65 33.22 L 111.13 33.73 L 110.88 33.73 L 109.34 35.27 L 109.34 35.78 L 109.08 36.04 L 109.08 36.30 L 108.82 36.56 L 108.82 39.12 L 109.08 39.38 L 109.08 40.15 L 109.34 40.41 L 109.34 40.66 L 109.59 40.92 L 109.59 41.18 L 111.13 42.72 L 111.39 42.72 L 111.65 42.97 L 111.90 42.97 L 112.16 43.23 L 112.93 43.23 L 113.19 43.49 L 115.76 43.49 L 116.01 43.23 L 116.78 43.23 L 117.04 42.97 L 117.30 42.97 L 117.55 42.72 L 117.81 42.72 L 118.07 42.46 L 118.32 42.46 L 119.86 40.92 L 119.86 40.66 L 120.12 40.41 L 120.12 40.15 L 120.38 39.89 L 120.38 38.87 L 120.63 38.61 L 120.63 37.84 L 120.38 37.58 L 120.38 36.56 L 120.12 36.30 L 120.12 35.78 L 119.86 35.53 L 119.86 35.27 L 118.07 33.47 L 117.81 33.47 L 117.55 33.22 L 117.04 33.22 L 116.78 32.96 L 115.76 32.96 L 115.50 32.70 Z M 113.19 33.47 L 113.44 33.22 L 115.50 33.22 L 115.76 33.47 L 116.53 33.47 L 117.04 33.99 L 117.30 33.99 L 118.32 35.01 L 118.32 35.27 L 118.84 35.78 L 118.84 36.30 L 119.09 36.56 L 119.09 39.64 L 118.84 39.89 L 118.84 40.41 L 118.58 40.66 L 118.58 40.92 L 117.04 42.46 L 116.78 42.46 L 116.53 42.72 L 115.76 42.72 L 115.50 42.97 L 113.70 42.97 L 113.44 42.72 L 112.93 42.72 L 112.67 42.46 L 112.42 42.46 L 112.16 42.20 L 111.90 42.20 L 110.88 41.18 L 110.88 40.92 L 110.62 40.66 L 110.62 40.41 L 110.36 40.15 L 110.36 39.64 L 110.11 39.38 L 110.11 36.56 L 110.36 36.30 L 110.36 35.78 L 110.62 35.53 L 110.62 35.27 L 112.16 33.73 L 112.42 33.73 L 112.67 33.47 Z"/></g>
</svg>